<?xml version="1.0" standalone="no"?>
<!DOCTYPE svg PUBLIC "-//W3C//DTD SVG 20010904//EN"
 "http://www.w3.org/TR/2001/REC-SVG-20010904/DTD/svg10.dtd">
<svg version="1.0" xmlns="http://www.w3.org/2000/svg"
 width="1000.000000pt" height="1000.000000pt" viewBox="0 0 1000.000000 1000.000000"
 preserveAspectRatio="xMidYMid meet">
<metadata>
Created by potrace 1.11, written by Peter Selinger 2001-2013
</metadata>
<g transform="translate(0.000000,1000.000000) scale(0.100000,-0.100000)"
fill="#000000" stroke="none">
<path d="M2390 8035 l0 -535 1155 0 c850 0 1155 -3 1155 -11 0 -6 -22 -53 -49
-103 -27 -50 -91 -174 -144 -276 -52 -102 -283 -549 -512 -995 -229 -445 -457
-886 -505 -980 -48 -93 -168 -325 -265 -515 -98 -190 -210 -408 -250 -485 -94
-180 -714 -1385 -789 -1531 l-56 -110 1 -182 c1 -121 4 -180 11 -176 6 4 14 0
19 -7 14 -23 10 -32 -11 -26 -17 4 -20 0 -20 -24 0 -24 4 -29 23 -29 13 0 28
5 35 12 9 9 12 8 12 -5 0 -13 10 -17 48 -19 162 -5 175 -7 190 -22 22 -22 10
-29 -51 -32 -85 -3 -89 -3 -81 -15 5 -8 -18 -10 -81 -8 -64 3 -89 1 -92 -8 -3
-9 11 -14 49 -15 63 -2 123 -2 158 0 14 1 111 0 215 -1 143 -3 198 -1 224 10
19 7 44 10 55 6 20 -6 20 -7 -3 -13 -32 -7 -40 -30 -11 -30 12 0 30 -5 41 -11
14 -7 24 -7 33 0 19 16 994 5 1266 -15 107 -7 141 -14 135 -25 -4 -5 19 -9 54
-9 36 0 61 4 61 10 0 13 376 12 530 -1 52 -4 214 -10 360 -13 405 -9 465 -14
511 -37 21 -12 39 -22 39 -23 0 0 -28 -1 -62 -1 -49 0 -63 -3 -63 -15 0 -11
-8 -14 -30 -11 -55 7 -68 6 -72 -7 -4 -9 5 -13 29 -12 18 0 69 -4 113 -9 44
-5 90 -10 103 -10 12 -1 22 -6 22 -12 0 -6 -9 -9 -19 -6 -26 7 -52 -10 -28
-19 9 -3 17 -12 17 -20 0 -16 46 -19 55 -4 3 6 -3 10 -15 10 -18 0 -19 3 -10
20 12 22 40 27 40 8 0 -23 20 16 20 40 0 14 -6 22 -17 22 -9 0 -13 3 -9 7 4 4
-19 20 -51 35 l-58 28 66 -6 65 -5 1 50 c1 49 1 50 -25 40 -14 -6 -78 -10
-142 -10 -63 0 -157 0 -209 -1 -68 0 -96 4 -102 14 -6 10 -9 10 -9 1 0 -24
-18 -13 -28 16 -12 33 -7 41 20 41 10 0 21 7 24 15 7 16 30 20 36 7 2 -5 20
-12 41 -15 28 -4 37 -2 37 9 0 8 7 14 16 14 11 0 15 -6 11 -19 -7 -28 38 -34
211 -27 40 1 75 -1 78 -6 3 -4 14 -8 26 -8 16 0 19 5 14 23 -3 12 -6 24 -6 27
0 9 -84 -2 -90 -11 -3 -4 -17 1 -30 11 -19 15 -21 20 -9 20 9 0 19 7 23 15 3
8 13 15 22 15 9 0 23 8 30 18 13 16 15 16 28 -1 32 -41 36 -21 36 182 0 150
-3 200 -12 204 -10 4 -10 7 0 18 6 7 12 17 12 21 0 4 -578 8 -1285 8 -707 0
-1285 3 -1285 7 0 5 88 177 460 898 43 83 162 314 265 515 103 201 225 437
270 525 252 488 412 798 580 1125 103 201 198 384 211 407 13 23 24 51 24 62
0 12 4 21 10 21 13 0 118 212 113 228 -3 7 0 11 5 10 6 -2 36 45 67 105 41 79
52 107 40 107 -8 0 -15 4 -15 9 0 15 22 25 29 13 3 -6 59 93 124 219 65 126
114 229 108 229 -6 0 -11 7 -11 15 0 17 17 20 22 4 2 -6 28 35 58 92 33 65 49
104 42 107 -7 2 -12 16 -12 31 0 21 6 29 31 36 27 9 40 26 89 120 l58 109 1
176 c0 96 -2 183 -5 193 -5 15 -19 17 -100 17 -56 0 -94 -4 -94 -10 0 -16 -37
-12 -44 5 -3 10 -19 15 -46 15 -29 0 -40 -4 -40 -15 0 -20 -17 -19 -28 1 -8
14 -34 17 -158 21 -82 2 -157 4 -166 3 -82 -5 -180 2 -209 14 -10 4 -50 3 -90
-3 -70 -9 -399 -6 -484 4 -120 15 -1229 2 -1344 -16 -34 -5 -73 -6 -85 -2 -11
4 -58 6 -103 4 -87 -3 -154 6 -134 18 6 4 82 9 169 10 86 1 254 6 372 9 277 9
1390 7 1628 -2 163 -7 182 -6 182 8 0 22 37 20 51 -1 9 -15 25 -18 101 -17 64
0 92 4 98 14 7 11 11 10 24 -3 18 -17 84 -13 99 7 6 8 10 7 14 -1 6 -15 93
-18 93 -3 0 6 7 10 15 10 8 0 15 -4 15 -9 0 -5 16 -11 36 -13 27 -3 38 0 45
14 13 24 40 23 46 -2 7 -26 70 -28 89 -2 13 16 13 16 14 0 0 -11 8 -18 20 -18
19 0 20 7 20 154 l0 153 -77 2 c-43 1 -109 4 -148 6 -210 12 -379 14 -386 4
-4 -7 -17 -7 -40 -1 -19 6 -28 11 -20 11 11 1 11 4 1 16 -7 8 -17 12 -23 8 -5
-3 -24 -6 -41 -5 -17 0 -40 -5 -51 -12 -11 -7 -28 -10 -37 -7 -10 3 -61 5
-115 4 -57 0 -103 3 -111 10 -7 5 -36 12 -65 14 -121 10 -154 21 -171 54 l-14
29 59 0 c33 0 58 -4 55 -9 -9 -14 49 -18 63 -4 17 18 32 16 29 -4 -2 -10 4
-19 15 -21 12 -2 17 3 17 18 0 21 2 22 168 19 107 -2 177 2 194 9 16 7 38 8
56 3 16 -5 36 -5 45 1 9 5 46 11 82 15 36 3 63 8 61 10 -2 2 -93 6 -203 9
-650 13 -713 13 -713 4 0 -6 41 -10 100 -10 63 0 100 -4 100 -11 0 -7 -48 -8
-152 -3 -147 6 -211 14 -115 14 26 0 47 5 47 10 0 6 -29 10 -67 10 -38 0 -118
3 -180 7 -111 6 -112 6 -106 -16 5 -21 4 -21 -148 -20 -85 1 -144 4 -132 6 12
2 27 11 34 19 11 13 -5 15 -137 11 -117 -4 -155 -2 -177 9 -15 8 -32 12 -37 9
-5 -3 -70 -6 -144 -6 -78 0 -138 -4 -141 -9 -8 -13 -58 -13 -70 -1 -9 8 -132
16 -160 10 -5 -1 -38 -2 -73 -3 -52 -1 -61 2 -56 14 3 8 7 24 8 35 1 15 11 22
41 27 22 4 64 12 94 17 30 6 122 13 205 16 83 3 217 10 298 16 82 6 156 8 165
5 10 -3 89 -6 176 -8 86 -1 157 -6 157 -10 0 -4 -9 -8 -20 -8 -11 0 -20 -5
-20 -11 0 -7 11 -8 31 -4 21 5 29 4 25 -3 -3 -6 0 -12 6 -15 7 -2 10 -8 6 -12
-4 -4 -13 -3 -20 1 -16 10 -16 10 -113 13 -51 2 -71 6 -55 10 49 14 -5 19
-151 16 -79 -2 -172 -8 -207 -15 -35 -6 -82 -10 -105 -8 -30 2 -41 -1 -40 -9
2 -9 -12 -13 -50 -12 -48 2 -50 2 -17 9 54 11 14 14 -157 11 -88 -1 -115 -11
-92 -33 11 -10 71 -13 277 -13 145 0 266 -3 269 -8 2 -4 10 -4 16 0 7 5 26 9
42 9 17 1 98 5 180 9 122 6 173 4 270 -11 128 -19 352 -27 361 -12 3 4 -11 8
-30 8 -20 0 -36 4 -36 9 0 11 321 2 336 -10 13 -10 117 -12 504 -9 262 2 282
4 250 17 -19 9 -46 17 -60 18 -100 13 -263 24 -360 24 -169 1 -361 11 -394 22
-16 5 -85 9 -152 9 -82 0 -124 4 -124 11 0 7 76 10 248 9 405 -3 678 1 657 9
-11 5 -557 9 -1213 10 -1074 2 -1193 1 -1198 -13 -8 -20 -34 -21 -34 -1 0 13
-37 15 -275 15 l-275 0 0 -535z m1890 505 c-20 -13 -57 -13 -65 0 -4 6 11 10
37 10 31 0 39 -3 28 -10z m246 -41 c6 -11 -100 -12 -176 -1 -55 7 -55 7 35 12
97 5 132 3 141 -11z m-686 1 c-99 -10 -229 -10 -180 -1 19 4 85 7 145 8 107 0
108 0 35 -7z m397 4 c-3 -3 -12 -4 -19 -1 -8 3 -5 6 6 6 11 1 17 -2 13 -5z
m-1357 -20 c0 -2 -11 -4 -25 -4 -14 0 -25 4 -25 9 0 4 11 6 25 3 14 -2 25 -6
25 -8z m1803 9 c-7 -2 -19 -2 -25 0 -7 3 -2 5 12 5 14 0 19 -2 13 -5z m-1393
-13 c0 -5 -23 -10 -52 -10 -30 0 -48 4 -41 8 20 12 93 14 93 2z m1521 1 c-8
-5 -20 -7 -28 -4 -21 8 -15 13 15 13 20 0 23 -3 13 -9z m394 -1 c3 -5 1 -10
-4 -10 -6 0 -11 5 -11 10 0 6 2 10 4 10 3 0 8 -4 11 -10z m45 0 c0 -5 -7 -10
-16 -10 -8 0 -12 5 -9 10 3 6 10 10 16 10 5 0 9 -4 9 -10z m-2722 -7 c-10 -2
-26 -2 -35 0 -10 3 -2 5 17 5 19 0 27 -2 18 -5z m267 -29 c22 -5 41 -31 31
-41 -8 -8 -27 8 -21 18 8 12 -2 12 -25 -1 -22 -12 -102 -2 -94 11 3 5 16 9 30
9 13 0 24 5 24 11 0 6 7 8 16 5 9 -3 26 -9 39 -12z m62 0 c-3 -3 -12 -4 -19
-1 -8 3 -5 6 6 6 11 1 17 -2 13 -5z m67 -15 c-3 -5 -10 -7 -15 -3 -5 3 -7 10
-3 15 3 5 10 7 15 3 5 -3 7 -10 3 -15z m-367 -5 c-3 -3 -12 -4 -19 -1 -8 3 -5
6 6 6 11 1 17 -2 13 -5z m383 -30 c0 -8 -5 -12 -10 -9 -6 4 -8 11 -5 16 9 14
15 11 15 -7z m-36 -3 c8 -12 -30 -44 -46 -38 -8 3 -6 6 6 6 13 1 17 6 13 21
-5 20 16 29 27 11z m663 -6 c-17 -12 -12 -13 42 -14 33 0 63 4 66 10 4 5 16 9
28 9 18 0 19 -2 7 -10 -11 -7 -1 -10 35 -11 53 -1 64 -2 215 -13 52 -4 135 -9
184 -11 49 -3 94 -9 100 -15 7 -7 -3 -10 -34 -9 -47 2 -287 -16 -400 -29 -50
-6 -71 -5 -95 7 -25 13 -69 16 -250 15 -189 -1 -216 1 -190 12 27 12 20 13
-80 15 -66 0 -100 4 -85 8 l25 8 -25 5 c-14 3 11 6 55 6 44 0 91 4 106 10 14
5 38 7 55 4 l29 -6 -30 -7 c-19 -5 -1 -7 49 -6 52 2 81 7 84 15 2 7 13 12 25
12 18 0 19 -2 7 -10 -12 -8 -9 -10 13 -10 16 0 35 7 43 15 9 8 21 15 27 15 7
0 4 -7 -6 -15z m686 -2 c-7 -2 -19 -2 -25 0 -7 3 -2 5 12 5 14 0 19 -2 13 -5z
m145 0 c-21 -2 -57 -2 -80 0 -24 2 -7 4 37 4 44 0 63 -2 43 -4z m801 -9 c2 -2
-71 -4 -163 -4 -92 0 -165 4 -162 8 5 8 317 4 325 -4z m-2259 -14 c0 -5 -4
-10 -10 -10 -5 0 -10 5 -10 10 0 6 5 10 10 10 6 0 10 -4 10 -10z m1576 -15
c10 -8 33 -15 49 -15 21 0 26 -3 15 -9 -8 -4 -40 -5 -70 -2 -48 6 -52 8 -30
16 l25 9 -30 7 c-28 6 -28 7 -4 8 14 0 34 -6 45 -14z m-1521 -5 c-3 -5 -13
-10 -21 -10 -8 0 -12 5 -9 10 3 6 13 10 21 10 8 0 12 -4 9 -10z m1642 4 c-3
-3 -12 -4 -19 -1 -8 3 -5 6 6 6 11 1 17 -2 13 -5z m-1352 -61 c-93 -21 -140
-36 -147 -46 -6 -9 -10 -9 -20 1 -6 6 -21 12 -32 12 -47 1 17 22 88 30 80 8
142 10 111 3z m975 -8 c19 -23 7 -27 -57 -19 l-58 7 40 12 c54 17 61 17 75 0z
m-1306 -37 c-3 -5 -14 -2 -25 8 -27 25 -23 37 6 18 14 -9 22 -20 19 -26z m836
22 c0 -5 -11 -10 -25 -10 -14 0 -25 5 -25 10 0 6 11 10 25 10 14 0 25 -4 25
-10z m535 0 c8 -13 -5 -13 -25 0 -13 8 -13 10 2 10 9 0 20 -4 23 -10z m175 0
c0 -5 -12 -10 -26 -10 -14 0 -23 4 -19 10 3 6 15 10 26 10 10 0 19 -4 19 -10z
m-77 -7 c-7 -2 -19 -2 -25 0 -7 3 -2 5 12 5 14 0 19 -2 13 -5z m-1546 -9 c-3
-3 -12 -4 -19 -1 -8 3 -5 6 6 6 11 1 17 -2 13 -5z m1393 -108 c0 -2 -7 -6 -15
-10 -8 -3 -15 -1 -15 4 0 6 7 10 15 10 8 0 15 -2 15 -4z m-1416 -48 c-3 -4
-24 -7 -47 -6 -38 1 -39 2 -9 5 18 3 36 11 39 20 5 11 7 12 14 2 4 -7 5 -17 3
-21z m1961 -28 c3 -5 1 -10 -4 -10 -6 0 -11 5 -11 10 0 6 2 10 4 10 3 0 8 -4
11 -10z m-2160 -160 c13 -5 14 -9 5 -9 -8 0 -24 4 -35 9 -13 5 -14 9 -5 9 8 0
24 -4 35 -9z m117 -2 c-8 -8 -23 -8 -54 -1 l-43 11 55 1 c41 1 51 -2 42 -11z
m-305 -4 c-3 -3 -12 -4 -19 -1 -8 3 -5 6 6 6 11 1 17 -2 13 -5z m2683 -29 c0
-8 -4 -15 -10 -15 -5 0 -10 7 -10 15 0 8 5 15 10 15 6 0 10 -7 10 -15z m120 0
c0 -8 -4 -15 -10 -15 -5 0 -10 7 -10 15 0 8 5 15 10 15 6 0 10 -7 10 -15z
m107 -7 c-3 -8 -6 -5 -6 6 -1 11 2 17 5 13 3 -3 4 -12 1 -19z m422 -42 c9 -10
8 -16 -4 -26 -19 -16 -41 1 -32 24 8 20 21 20 36 2z m-579 -5 c0 -5 -7 -14
-15 -21 -18 -15 -42 1 -31 19 8 13 46 15 46 2z m102 -6 c0 -5 -5 -11 -11 -13
-6 -2 -11 4 -11 13 0 9 5 15 11 13 6 -2 11 -8 11 -13z m236 -7 c-2 -15 -11
-24 -24 -26 -12 -2 -24 -12 -27 -24 -3 -11 -10 -17 -16 -13 -16 9 -13 35 4 35
8 0 15 8 15 18 0 24 8 32 32 32 14 0 19 -6 16 -22z m122 12 c0 -5 -4 -10 -10
-10 -5 0 -10 5 -10 10 0 6 5 10 10 10 6 0 10 -4 10 -10z m230 -5 c0 -8 -4 -15
-9 -15 -13 0 -22 16 -14 24 11 11 23 6 23 -9z m-745 -65 c21 -40 20 -43 -17
-35 -46 10 -53 19 -32 44 24 28 31 27 49 -9z m104 21 c12 -8 12 -12 2 -25 -16
-19 -31 -12 -31 15 0 21 7 23 29 10z m476 -12 c0 -7 -8 -15 -17 -17 -18 -3
-25 18 -11 32 10 10 28 1 28 -15z m-117 -1 c-7 -19 -38 -22 -38 -4 0 10 9 16
21 16 12 0 19 -5 17 -12z m-868 -8 c0 -5 -7 -10 -16 -10 -8 0 -12 5 -9 10 3 6
10 10 16 10 5 0 9 -4 9 -10z m277 -6 c-3 -3 -12 -4 -19 -1 -8 3 -5 6 6 6 11 1
17 -2 13 -5z m520 -10 c-3 -3 -12 -4 -19 -1 -8 3 -5 6 6 6 11 1 17 -2 13 -5z
m-227 -35 c0 -5 -7 -9 -15 -9 -15 0 -20 12 -9 23 8 8 24 -1 24 -14z m-120 1
c0 -5 -4 -10 -10 -10 -5 0 -10 5 -10 10 0 6 5 10 10 10 6 0 10 -4 10 -10z
m230 0 c0 -5 -4 -10 -9 -10 -6 0 -13 5 -16 10 -3 6 1 10 9 10 9 0 16 -4 16
-10z m361 -5 c-1 -15 -24 -12 -29 3 -3 9 2 13 12 10 10 -1 17 -7 17 -13z
m-589 -127 c-9 -9 -15 -9 -23 -1 -7 7 -9 20 -5 29 6 16 8 16 23 1 13 -13 15
-19 5 -29z m108 16 c0 -8 -7 -14 -15 -14 -17 0 -18 2 -9 24 7 18 24 12 24 -10z
m240 6 c0 -11 -7 -20 -15 -20 -15 0 -21 21 -8 33 12 13 23 7 23 -13z m122 -22
c-9 -9 -15 -9 -23 -1 -7 7 -9 20 -5 29 6 16 8 16 23 1 13 -13 15 -19 5 -29z
m-414 -47 c3 -8 -1 -12 -9 -9 -7 2 -15 10 -17 17 -3 8 1 12 9 9 7 -2 15 -10
17 -17z m109 -3 c-3 -8 -6 -5 -6 6 -1 11 2 17 5 13 3 -3 4 -12 1 -19z m-157
-53 c0 -19 -20 -29 -32 -17 -15 15 -2 43 17 36 8 -3 15 -12 15 -19z m105 6 c3
-5 1 -12 -5 -16 -5 -3 -10 1 -10 9 0 18 6 21 15 7z m473 -9 c2 -7 -3 -12 -12
-12 -9 0 -16 7 -16 16 0 17 22 14 28 -4z m112 3 c0 -8 -4 -15 -9 -15 -13 0
-22 16 -14 24 11 11 23 6 23 -9z m-630 -54 c0 -11 -26 -22 -34 -14 -12 12 -5
23 14 23 11 0 20 -4 20 -9z m220 -1 c0 -5 -4 -10 -10 -10 -5 0 -10 5 -10 10 0
6 5 10 10 10 6 0 10 -4 10 -10z m120 -5 c0 -8 -7 -15 -15 -15 -8 0 -15 7 -15
15 0 8 7 15 15 15 8 0 15 -7 15 -15z m230 0 c0 -8 -4 -15 -10 -15 -5 0 -10 7
-10 15 0 8 5 15 10 15 6 0 10 -7 10 -15z m-640 -60 c0 -8 -7 -15 -15 -15 -8 0
-15 7 -15 15 0 8 7 15 15 15 8 0 15 -7 15 -15z m112 0 c0 -5 -5 -11 -11 -13
-6 -2 -11 4 -11 13 0 9 5 15 11 13 6 -2 11 -8 11 -13z m118 -5 c0 -11 -6 -20
-14 -20 -21 0 -31 21 -15 31 22 14 29 11 29 -11z m240 10 c0 -5 -4 -10 -10
-10 -5 0 -10 5 -10 10 0 6 5 10 10 10 6 0 10 -4 10 -10z m115 1 c3 -5 1 -12
-5 -16 -5 -3 -10 1 -10 9 0 18 6 21 15 7z m-527 -63 c-6 -18 -28 -21 -28 -4 0
9 7 16 16 16 9 0 14 -5 12 -12z m352 -3 c0 -8 -7 -15 -15 -15 -8 0 -15 7 -15
15 0 8 7 15 15 15 8 0 15 -7 15 -15z m120 11 c0 -3 -4 -8 -10 -11 -5 -3 -10
-1 -10 4 0 6 5 11 10 11 6 0 10 -2 10 -4z m-522 -68 c-3 -7 -11 -13 -18 -13
-7 0 -15 6 -17 13 -3 7 4 12 17 12 13 0 20 -5 18 -12z m222 2 c0 -5 -2 -10 -4
-10 -3 0 -8 5 -11 10 -3 6 -1 10 4 10 6 0 11 -4 11 -10z m240 0 c0 -5 -4 -10
-10 -10 -5 0 -10 5 -10 10 0 6 5 10 10 10 6 0 10 -4 10 -10z m-530 -60 c0 -5
-7 -10 -15 -10 -8 0 -15 5 -15 10 0 6 7 10 15 10 8 0 15 -4 15 -10z m125 -10
c0 -22 -29 -18 -33 3 -3 14 1 18 15 15 10 -2 18 -10 18 -18z m475 10 c0 -5 -7
-10 -15 -10 -8 0 -15 5 -15 10 0 6 7 10 15 10 8 0 15 -4 15 -10z m-535 -60 c0
-22 -29 -18 -33 3 -3 14 1 18 15 15 10 -2 18 -10 18 -18z m473 3 c2 -8 -5 -13
-17 -13 -12 0 -21 6 -21 16 0 18 31 15 38 -3z m-540 -55 c-6 -18 -28 -21 -28
-4 0 9 7 16 16 16 9 0 14 -5 12 -12z m122 -3 c10 -12 10 -15 -4 -15 -9 0 -16
7 -16 15 0 8 2 15 4 15 2 0 9 -7 16 -15z m230 0 c0 -8 -4 -15 -10 -15 -5 0
-10 7 -10 15 0 8 5 15 10 15 6 0 10 -7 10 -15z m120 0 c0 -8 -4 -15 -10 -15
-5 0 -10 7 -10 15 0 8 5 15 10 15 6 0 10 -7 10 -15z m-410 -60 c0 -8 -7 -15
-15 -15 -8 0 -15 7 -15 15 0 8 7 15 15 15 8 0 15 -7 15 -15z m360 0 c0 -8 -9
-15 -20 -15 -11 0 -20 7 -20 15 0 8 9 15 20 15 11 0 20 -7 20 -15z m-304 -56
c8 -14 -18 -31 -30 -19 -9 9 0 30 14 30 5 0 12 -5 16 -11z m119 -7 c0 -18 -20
-15 -23 4 -3 10 1 15 10 12 7 -3 13 -10 13 -16z m235 3 c0 -8 -7 -15 -15 -15
-8 0 -15 7 -15 15 0 8 7 15 15 15 8 0 15 -7 15 -15z m-60 -60 c0 -8 -4 -15
-10 -15 -5 0 -10 7 -10 15 0 8 5 15 10 15 6 0 10 -7 10 -15z m-282 -57 c-7
-19 -38 -22 -38 -4 0 10 9 16 21 16 12 0 19 -5 17 -12z m222 2 c0 -5 -4 -10
-10 -10 -5 0 -10 5 -10 10 0 6 5 10 10 10 6 0 10 -4 10 -10z m60 -60 c0 -5 -4
-10 -10 -10 -5 0 -10 5 -10 10 0 6 5 10 10 10 6 0 10 -4 10 -10z m-285 -49 c7
-12 -12 -24 -25 -16 -11 7 -4 25 10 25 5 0 11 -4 15 -9z m230 -11 c0 -8 -8
-16 -17 -18 -13 -2 -18 3 -18 18 0 15 5 20 18 18 9 -2 17 -10 17 -18z m-125
-115 c0 -8 -4 -15 -10 -15 -5 0 -10 7 -10 15 0 8 5 15 10 15 6 0 10 -7 10 -15z
m-230 -5 c0 -5 -4 -10 -10 -10 -5 0 -10 5 -10 10 0 6 5 10 10 10 6 0 10 -4 10
-10z m172 -62 c-9 -9 -12 -7 -12 12 0 19 3 21 12 12 9 -9 9 -15 0 -24z m-54
-56 c2 -7 -3 -12 -12 -12 -9 0 -16 7 -16 16 0 17 22 14 28 -4z m-58 -57 c0 -8
-7 -15 -15 -15 -8 0 -15 7 -15 15 0 8 7 15 15 15 8 0 15 -7 15 -15z m60 -60
c-7 -8 -16 -15 -21 -15 -5 0 -9 7 -9 15 0 9 9 15 21 15 18 0 19 -2 9 -15z
m-122 -116 c-2 -6 -8 -10 -13 -10 -5 0 -11 4 -13 10 -2 6 4 11 13 11 9 0 15
-5 13 -11z m122 1 c0 -5 -4 -10 -10 -10 -5 0 -10 5 -10 10 0 6 5 10 10 10 6 0
10 -4 10 -10z m-59 -65 c-1 -15 -24 -12 -29 3 -3 9 2 13 12 10 10 -1 17 -7 17
-13z m-66 -50 c0 -10 -6 -20 -12 -22 -8 -3 -13 5 -13 22 0 17 5 25 13 23 6 -3
12 -13 12 -23z m5 -3650 c0 -8 -4 -15 -10 -15 -5 0 -10 7 -10 15 0 8 5 15 10
15 6 0 10 -7 10 -15z m115 5 c3 -5 -1 -10 -9 -10 -9 0 -16 5 -16 10 0 6 4 10
9 10 6 0 13 -4 16 -10z m115 0 c0 -5 -4 -10 -10 -10 -5 0 -10 5 -10 10 0 6 5
10 10 10 6 0 10 -4 10 -10z m130 -5 c0 -8 -9 -15 -20 -15 -11 0 -20 7 -20 15
0 8 9 15 20 15 11 0 20 -7 20 -15z m230 0 c0 -8 -4 -15 -10 -15 -5 0 -10 7
-10 15 0 8 5 15 10 15 6 0 10 -7 10 -15z m-180 -55 c0 -11 -7 -20 -15 -20 -8
0 -15 9 -15 20 0 11 7 20 15 20 8 0 15 -9 15 -20z m358 -3 c2 -10 -3 -17 -12
-17 -18 0 -29 16 -21 31 9 14 29 6 33 -14z m-478 -2 c0 -8 -7 -15 -15 -15 -16
0 -20 12 -8 23 11 12 23 8 23 -8z m306 -62 c-3 -8 -6 -17 -6 -19 0 -2 -6 -4
-14 -4 -21 0 -30 19 -16 35 14 17 43 8 36 -12z m-596 2 c0 -8 -4 -15 -10 -15
-5 0 -10 7 -10 15 0 8 5 15 10 15 6 0 10 -7 10 -15z m350 5 c0 -5 -4 -10 -10
-10 -5 0 -10 5 -10 10 0 6 5 10 10 10 6 0 10 -4 10 -10z m120 -5 c0 -8 -4 -15
-10 -15 -5 0 -10 7 -10 15 0 8 5 15 10 15 6 0 10 -7 10 -15z m-410 -54 c0 -12
-20 -25 -27 -18 -7 7 6 27 18 27 5 0 9 -4 9 -9z m230 -6 c0 -9 -6 -12 -15 -9
-8 4 -15 10 -15 15 0 5 7 9 15 9 8 0 15 -7 15 -15z m128 3 c-7 -19 -38 -22
-38 -4 0 10 9 16 21 16 12 0 19 -5 17 -12z m-3178 -22 c0 -3 -4 -8 -10 -11 -5
-3 -10 -1 -10 4 0 6 5 11 10 11 6 0 10 -2 10 -4z m3000 -40 c0 -8 -4 -17 -8
-20 -13 -8 -35 11 -28 23 10 16 36 14 36 -3z m350 5 c0 -12 -20 -25 -27 -18
-7 7 6 27 18 27 5 0 9 -4 9 -9z m115 -21 c-5 -8 -11 -8 -17 -2 -6 6 -7 16 -3
22 5 8 11 8 17 2 6 -6 7 -16 3 -22z m-2385 0 c0 -5 -6 -10 -14 -10 -8 0 -18 5
-21 10 -3 6 3 10 14 10 12 0 21 -4 21 -10z m550 6 c0 -3 -4 -8 -10 -11 -5 -3
-10 -1 -10 4 0 6 5 11 10 11 6 0 10 -2 10 -4z m1033 -13 c-7 -2 -21 -2 -30 0
-10 3 -4 5 12 5 17 0 24 -2 18 -5z m-1543 -13 c0 -5 -2 -10 -4 -10 -3 0 -8 5
-11 10 -3 6 -1 10 4 10 6 0 11 -4 11 -10z m2204 -21 c8 -9 -5 -10 -56 -5 -44
4 -68 3 -68 -4 0 -5 -5 -10 -11 -10 -15 0 -39 26 -32 34 11 11 155 -2 167 -15z
m-504 1 c0 -5 -4 -10 -10 -10 -5 0 -10 5 -10 10 0 6 5 10 10 10 6 0 10 -4 10
-10z m230 0 c0 -5 -4 -10 -10 -10 -5 0 -10 5 -10 10 0 6 5 10 10 10 6 0 10 -4
10 -10z m370 0 c11 -7 5 -8 -20 -4 -43 8 -51 14 -19 14 13 0 31 -5 39 -10z
m90 -9 c0 -23 -16 -36 -25 -21 -9 14 1 40 15 40 5 0 10 -9 10 -19z m-720 -6
c0 -8 -7 -15 -15 -15 -8 0 -15 7 -15 15 0 8 7 15 15 15 8 0 15 -7 15 -15z
m-2871 -31 c-13 -16 -60 -15 -66 1 -2 6 15 11 38 12 35 2 39 0 28 -13z m1314
-8 c44 0 66 -3 64 -10 -2 -7 -34 -11 -78 -11 -41 0 -80 -4 -86 -8 -15 -9 -133
2 -133 13 0 12 102 28 135 22 17 -4 60 -6 98 -6z m1532 -6 c0 -8 -8 -16 -17
-18 -13 -2 -18 3 -18 18 0 15 5 20 18 18 9 -2 17 -10 17 -18z m465 -1 c0 -5
-7 -9 -15 -9 -15 0 -20 12 -9 23 8 8 24 -1 24 -14z m-3210 2 c0 -5 -9 -7 -20
-4 -11 3 -20 7 -20 9 0 2 9 4 20 4 11 0 20 -4 20 -9z m588 -10 c3 -8 -1 -12
-9 -9 -7 2 -15 10 -17 17 -3 8 1 12 9 9 7 -2 15 -10 17 -17z m302 5 c0 -16
-166 -29 -190 -16 -13 8 -13 9 0 14 32 10 42 11 115 13 55 1 75 -2 75 -11z
m709 -8 c7 -19 5 -23 -15 -26 -13 -2 -40 8 -61 22 l-38 26 53 0 c45 0 54 -3
61 -22z m371 7 c9 -11 22 -14 40 -10 19 4 34 0 51 -14 l24 -20 -103 -1 c-75 0
-111 4 -134 16 l-31 16 24 13 c35 19 114 19 129 0z m-1645 -5 c3 -5 -1 -10 -9
-10 -8 0 -18 5 -21 10 -3 6 1 10 9 10 8 0 18 -4 21 -10z m155 -10 c12 -8 11
-10 -7 -10 -12 0 -25 5 -28 10 -8 13 15 13 35 0z m2010 -10 c0 -5 -7 -10 -16
-10 -8 0 -12 5 -9 10 3 6 10 10 16 10 5 0 9 -4 9 -10z m525 0 c3 -5 -1 -10 -9
-10 -8 0 -18 5 -21 10 -3 6 1 10 9 10 8 0 18 -4 21 -10z m-205 -21 c62 -28 34
-33 -175 -30 -124 2 -154 14 -102 39 30 15 237 8 277 -9z m580 -5 c0 -16 -16
-19 -25 -4 -8 13 4 32 16 25 5 -4 9 -13 9 -21z m-124 1 c3 -8 21 -23 40 -34
19 -11 34 -25 34 -31 0 -15 -37 -12 -43 4 -3 8 -21 17 -39 21 -31 7 -47 20
-48 37 0 4 7 5 15 2 8 -4 15 -1 15 5 0 16 20 13 26 -4z m-116 -5 c0 -5 -4 -10
-10 -10 -5 0 -10 5 -10 10 0 6 5 10 10 10 6 0 10 -4 10 -10z m-2037 -27 c13
-15 13 -21 2 -36 -7 -10 -17 -16 -21 -15 -5 2 -10 -1 -11 -7 -3 -15 -34 -24
-86 -24 -30 -1 -46 3 -42 9 3 6 23 10 43 10 20 0 32 4 26 8 -7 4 -39 5 -72 4
-47 -3 -60 -7 -55 -18 3 -9 -2 -14 -16 -14 -13 0 -19 5 -15 14 4 11 -11 15
-70 18 -106 5 -115 21 -26 42 60 15 84 16 157 7 69 -9 91 -8 112 3 36 19 55
19 74 -1z m840 -13 c19 -16 45 -34 58 -40 18 -7 -6 -9 -89 -7 -87 1 -115 5
-122 17 -7 11 -12 12 -18 3 -10 -15 -64 -21 -69 -7 -2 6 32 18 79 28 46 9 90
21 98 26 23 13 27 12 63 -20z m-338 -4 c49 -32 18 -40 -132 -36 -76 2 -168 4
-205 4 -91 1 -94 12 -6 20 40 3 107 12 148 19 97 18 160 16 195 -7z m-1250 -6
c3 -5 2 -10 -4 -10 -5 0 -13 5 -16 10 -3 6 -2 10 4 10 5 0 13 -4 16 -10z
m2298 -3 c26 2 47 -1 47 -6 0 -5 11 -12 25 -15 14 -4 25 -13 25 -21 0 -30 -86
-36 -303 -21 -86 6 -109 11 -116 25 -14 25 59 45 132 36 33 -4 62 -3 74 3 10
6 29 8 43 4 14 -4 46 -6 73 -5z m304 -9 c-3 -8 -6 -5 -6 6 -1 11 2 17 5 13 3
-3 4 -12 1 -19z m-2387 -8 c12 -8 11 -10 -7 -10 -13 0 -23 -4 -23 -9 0 -11
-51 -29 -66 -24 -6 2 -9 15 -6 28 4 22 10 25 46 25 22 0 48 -5 56 -10z m2238
-32 c19 -19 15 -48 -7 -48 -24 0 -45 25 -37 45 7 18 27 20 44 3z m-1213 -8
c46 -7 47 -8 15 -10 -60 -4 -154 2 -170 11 -19 11 85 10 155 -1z m1318 -5 c1
-5 -6 -11 -15 -13 -11 -2 -18 3 -18 13 0 17 30 18 33 0z m67 -5 c8 -5 12 -12
9 -15 -8 -8 -39 5 -39 16 0 11 11 11 30 -1z m453 -44 c6 -15 -1 -26 -15 -26
-4 0 -8 9 -8 20 0 23 15 27 23 6z m-703 -6 c0 -5 -4 -10 -10 -10 -5 0 -10 5
-10 10 0 6 5 10 10 10 6 0 10 -4 10 -10z m470 0 c0 -5 -4 -10 -10 -10 -5 0
-10 5 -10 10 0 6 5 10 10 10 6 0 10 -4 10 -10z m120 -10 c0 -5 -4 -10 -10 -10
-5 0 -10 5 -10 10 0 6 5 10 10 10 6 0 10 -4 10 -10z m105 -99 c3 -5 1 -12 -4
-15 -5 -4 -12 -2 -16 4 -4 6 -10 8 -15 5 -5 -3 -11 -1 -15 5 -4 6 4 10 19 10
14 0 27 -4 31 -9z"/>
<path d="M3330 8340 c0 -5 9 -10 21 -10 11 0 17 5 14 10 -3 6 -13 10 -21 10
-8 0 -14 -4 -14 -10z"/>
<path d="M4790 1960 c0 -5 5 -10 10 -10 6 0 10 5 10 10 0 6 -4 10 -10 10 -5 0
-10 -4 -10 -10z"/>
<path d="M2921 1961 c-10 -7 -10 -10 -1 -16 6 -4 16 -3 22 3 13 13 -4 23 -21
13z"/>
<path d="M5460 8560 c0 -11 31 -11 75 0 26 7 22 8 -22 9 -30 0 -53 -3 -53 -9z"/>
<path d="M5578 8563 c7 -3 16 -2 19 1 4 3 -2 6 -13 5 -11 0 -14 -3 -6 -6z"/>
<path d="M5638 8563 c7 -3 16 -2 19 1 4 3 -2 6 -13 5 -11 0 -14 -3 -6 -6z"/>
<path d="M3034 8479 c-4 -8 4 -9 27 -5 32 6 32 5 9 -5 -21 -10 -22 -13 -7 -16
25 -6 40 1 43 20 2 13 -5 17 -31 17 -19 0 -37 -5 -41 -11z"/>
<path d="M5625 8449 c-16 -6 -14 -8 13 -8 33 -1 41 4 20 12 -7 2 -22 1 -33 -4z"/>
<path d="M3987 8413 c-14 -13 -6 -20 18 -15 14 2 28 8 31 13 6 10 -39 12 -49
2z"/>
<path d="M4728 8333 c7 -3 16 -2 19 1 4 3 -2 6 -13 5 -11 0 -14 -3 -6 -6z"/>
<path d="M7024 7616 c-129 -40 -264 -152 -359 -296 -60 -92 -133 -252 -117
-258 7 -2 12 -8 12 -14 0 -6 -7 -8 -15 -4 -11 4 -19 -12 -35 -67 -12 -40 -23
-78 -25 -84 -3 -7 2 -13 10 -13 22 0 18 -27 -4 -33 -31 -8 -46 -139 -45 -392
0 -243 4 -275 34 -275 11 0 20 -7 20 -15 0 -9 -9 -15 -21 -15 -15 0 -19 -4
-15 -16 3 -9 6 -24 6 -34 0 -10 7 -26 16 -35 9 -8 13 -23 10 -32 -4 -9 3 -49
15 -88 18 -61 24 -72 40 -68 22 6 24 0 7 -26 -10 -16 -5 -34 32 -108 62 -127
128 -220 208 -295 231 -213 504 -207 728 17 274 274 402 811 315 1315 -74 424
-288 748 -550 830 -73 23 -202 26 -267 6z m-404 -626 c0 -5 -4 -10 -10 -10 -5
0 -10 5 -10 10 0 6 5 10 10 10 6 0 10 -4 10 -10z m-60 -65 c0 -8 -7 -15 -15
-15 -16 0 -20 12 -8 23 11 12 23 8 23 -8z m68 -57 c-7 -19 -38 -22 -38 -4 0
10 9 16 21 16 12 0 19 -5 17 -12z m-68 -63 c0 -8 -7 -15 -15 -15 -16 0 -20 12
-8 23 11 12 23 8 23 -8z m-50 -60 c0 -8 -9 -15 -20 -15 -20 0 -26 11 -13 23
12 13 33 7 33 -8z m120 0 c0 -8 -9 -15 -20 -15 -11 0 -20 7 -20 15 0 8 9 15
20 15 11 0 20 -7 20 -15z m-70 -55 c0 -5 -7 -10 -15 -10 -8 0 -15 5 -15 10 0
6 7 10 15 10 8 0 15 -4 15 -10z m-55 -61 c0 -7 -8 -15 -17 -17 -18 -3 -25 18
-11 32 10 10 28 1 28 -15z m110 1 c3 -5 1 -10 -4 -10 -6 0 -11 5 -11 10 0 6 2
10 4 10 3 0 8 -4 11 -10z m-55 -50 c0 -5 -4 -10 -10 -10 -5 0 -10 5 -10 10 0
6 5 10 10 10 6 0 10 -4 10 -10z m-60 -65 c0 -8 -7 -15 -15 -15 -8 0 -15 7 -15
15 0 8 7 15 15 15 8 0 15 -7 15 -15z m120 1 c0 -20 -19 -31 -32 -18 -6 6 -7
15 -4 21 10 16 36 13 36 -3z m-60 -56 c0 -5 -4 -10 -10 -10 -5 0 -10 5 -10 10
0 6 5 10 10 10 6 0 10 -4 10 -10z m-50 -64 c0 -20 -19 -31 -32 -18 -6 6 -7 15
-4 21 10 16 36 13 36 -3z m110 4 c0 -5 -4 -10 -10 -10 -5 0 -10 5 -10 10 0 6
5 10 10 10 6 0 10 -4 10 -10z m-110 -105 c10 -12 10 -18 0 -30 -14 -17 -20
-18 -39 -6 -16 10 -6 51 13 51 8 0 19 -7 26 -15z m58 -77 c-6 -18 -28 -21 -28
-4 0 9 7 16 16 16 9 0 14 -5 12 -12z m-8 -113 c0 -8 -7 -15 -15 -15 -8 0 -15
7 -15 15 0 8 7 15 15 15 8 0 15 -7 15 -15z m60 -295 c0 -5 -4 -10 -10 -10 -5
0 -10 5 -10 10 0 6 5 10 10 10 6 0 10 -4 10 -10z"/>
<path d="M7053 4685 c-197 -44 -389 -241 -493 -504 -16 -42 -17 -50 -5 -55 25
-9 18 -36 -9 -36 -21 0 -26 -8 -41 -65 -14 -50 -15 -69 -7 -77 18 -18 15 -35
-7 -41 -31 -8 -46 -139 -45 -392 0 -224 18 -379 45 -395 6 -4 8 -16 5 -26 -3
-11 2 -46 12 -79 14 -47 23 -61 40 -63 23 -4 30 -30 11 -49 -12 -12 42 -143
59 -143 5 0 12 -13 15 -29 8 -38 115 -179 180 -236 29 -25 90 -65 135 -88 77
-38 92 -42 177 -45 162 -7 285 46 411 180 368 385 443 1200 161 1743 -158 304
-402 456 -644 400z m-436 -521 c-3 -3 -12 -4 -19 -1 -8 3 -5 6 6 6 11 1 17 -2
13 -5z m11 -116 c-5 -34 -38 -37 -38 -4 0 20 5 26 21 26 15 0 20 -5 17 -22z
m-68 -63 c0 -8 -4 -15 -10 -15 -5 0 -10 7 -10 15 0 8 5 15 10 15 6 0 10 -7 10
-15z m0 -120 c0 -8 -7 -15 -15 -15 -8 0 -15 7 -15 15 0 8 7 15 15 15 8 0 15
-7 15 -15z m-52 -58 c2 -10 -3 -17 -12 -17 -18 0 -29 16 -21 31 9 14 29 6 33
-14z m112 3 c0 -5 -4 -10 -10 -10 -5 0 -10 5 -10 10 0 6 5 10 10 10 6 0 10 -4
10 -10z m27 -72 c-3 -7 -5 -2 -5 12 0 14 2 19 5 13 2 -7 2 -19 0 -25z m-87 7
c0 -8 -6 -15 -14 -15 -17 0 -28 14 -19 24 12 12 33 6 33 -9z m65 -56 c0 -7 -8
-15 -17 -17 -18 -3 -25 18 -11 32 10 10 28 1 28 -15z m-117 -1 c-3 -7 -11 -13
-18 -13 -7 0 -15 6 -17 13 -3 7 4 12 17 12 13 0 20 -5 18 -12z m60 -56 c4 -14
-34 -16 -42 -3 -6 10 13 21 28 17 6 -1 12 -8 14 -14z m-58 -57 c0 -8 -9 -15
-20 -15 -11 0 -20 7 -20 15 0 8 9 15 20 15 11 0 20 -7 20 -15z m110 0 c0 -8
-7 -15 -15 -15 -8 0 -15 7 -15 15 0 8 7 15 15 15 8 0 15 -7 15 -15z m-52 -62
c-2 -10 -13 -19 -25 -21 -17 -3 -20 1 -16 17 7 26 46 29 41 4z m57 -54 c0 -7
-8 -15 -17 -17 -18 -3 -25 18 -11 32 10 10 28 1 28 -15z m-125 -4 c0 -8 -4
-15 -10 -15 -5 0 -10 7 -10 15 0 8 5 15 10 15 6 0 10 -7 10 -15z m8 -117 c-6
-18 -28 -21 -28 -4 0 9 7 16 16 16 9 0 14 -5 12 -12z m62 -63 c0 -8 -9 -15
-20 -15 -11 0 -20 7 -20 15 0 8 9 15 20 15 11 0 20 -7 20 -15z m-70 -60 c0 -8
-4 -15 -10 -15 -5 0 -10 7 -10 15 0 8 5 15 10 15 6 0 10 -7 10 -15z m120 -110
c0 -8 -4 -15 -10 -15 -5 0 -10 7 -10 15 0 8 5 15 10 15 6 0 10 -7 10 -15z
m-51 -44 c19 -12 6 -41 -19 -41 -13 0 -20 7 -20 18 0 31 14 39 39 23z m51 -76
c0 -8 -7 -15 -15 -15 -8 0 -15 7 -15 15 0 8 7 15 15 15 8 0 15 -7 15 -15z m0
-115 c0 -5 -4 -10 -10 -10 -5 0 -10 5 -10 10 0 6 5 10 10 10 6 0 10 -4 10 -10z"/>
<path d="M2275 1880 c3 -5 10 -10 16 -10 5 0 9 5 9 10 0 6 -7 10 -16 10 -8 0
-12 -4 -9 -10z"/>
<path d="M3570 1817 c0 -9 18 -12 73 -9 108 6 118 21 15 22 -65 0 -88 -3 -88
-13z"/>
<path d="M3995 1823 c-30 -7 -43 -23 -19 -23 10 0 27 -7 37 -14 17 -13 16 -14
-3 -19 -26 -7 -26 -23 0 -30 26 -7 25 -21 -2 -35 -21 -10 -19 -11 20 -13 23
-1 47 -3 52 -4 6 -1 16 -3 23 -4 9 -1 9 -3 -1 -10 -8 -4 -44 -6 -81 -3 -41 3
-76 0 -87 -6 -15 -9 2 -12 76 -13 52 -1 106 -3 120 -4 14 -2 142 -6 285 -9
195 -5 256 -4 242 4 -10 6 -32 12 -50 12 -18 1 -42 7 -54 15 -12 8 -43 18 -70
23 l-48 8 62 1 c78 1 96 21 19 21 -60 0 -89 7 -80 21 3 5 1 9 -5 9 -5 0 -11
-5 -13 -12 -3 -9 -15 -8 -49 2 -24 7 -70 15 -101 17 -44 4 -58 9 -58 20 0 14
20 15 168 9 92 -4 193 -7 224 -6 31 0 59 -4 63 -9 3 -6 46 -10 96 -10 49 0 87
4 84 9 -8 13 -96 30 -150 28 -27 -1 -106 1 -175 5 -69 3 -197 9 -285 12 -88 3
-173 8 -190 10 -16 2 -39 1 -50 -2z m395 -123 c0 -5 -7 -7 -15 -4 -8 4 -15 8
-15 10 0 2 7 4 15 4 8 0 15 -4 15 -10z"/>
<path d="M2313 1800 c-3 -11 -10 -20 -17 -21 -6 0 2 -5 18 -9 18 -6 35 -5 48
3 16 9 22 9 25 -1 5 -13 23 -7 23 8 0 10 -63 40 -82 40 -6 0 -12 -9 -15 -20z"/>
<path d="M2913 1799 c-9 -9 -7 -20 4 -44 16 -33 17 -33 71 -29 50 4 54 3 41
-12 -10 -13 -23 -15 -64 -9 -59 9 -65 9 -220 0 -66 -3 -141 -2 -167 3 -25 5
-51 6 -58 2 -15 -9 -2 -40 19 -41 81 -6 491 -2 491 5 0 4 12 6 27 3 15 -3 34
-1 42 3 9 5 25 12 36 15 19 7 19 8 -4 16 -14 6 -37 7 -53 4 -17 -4 -28 -2 -28
4 0 6 9 11 19 11 11 0 23 5 26 10 3 6 11 10 16 10 6 0 8 -4 5 -9 -7 -10 17
-21 42 -21 15 1 15 2 2 13 -8 7 -21 24 -28 38 -12 23 -22 27 -80 33 -96 9
-126 8 -139 -5z m127 -19 c0 -5 -2 -10 -4 -10 -3 0 -8 5 -11 10 -3 6 -1 10 4
10 6 0 11 -4 11 -10z"/>
<path d="M4975 1780 c-6 -10 83 -18 305 -26 134 -5 172 -3 164 6 -7 7 -58 13
-130 16 -66 2 -167 6 -226 8 -59 3 -110 1 -113 -4z"/>
<path d="M2420 1760 c0 -5 7 -10 15 -10 8 0 15 5 15 10 0 6 -7 10 -15 10 -8 0
-15 -4 -15 -10z"/>
<path d="M3746 1763 c-11 -11 -6 -23 9 -23 8 0 15 4 15 9 0 13 -16 22 -24 14z"/>
<path d="M5495 1760 c-27 -7 -26 -8 15 -9 25 -1 55 -4 68 -7 15 -4 22 -2 22 8
0 16 -55 20 -105 8z"/>
<path d="M4670 1729 c0 -7 20 -9 60 -6 84 6 88 17 7 17 -42 0 -67 -4 -67 -11z"/>
<path d="M5122 1717 c-16 -19 -5 -27 34 -27 19 0 34 6 38 15 3 8 0 15 -7 15
-7 0 -21 3 -33 6 -11 3 -25 -1 -32 -9z"/>
<path d="M3190 1700 c0 -5 5 -10 11 -10 5 0 7 5 4 10 -3 6 -8 10 -11 10 -2 0
-4 -4 -4 -10z"/>
<path d="M3854 1659 c-3 -5 6 -9 20 -9 31 0 34 6 6 13 -11 3 -23 1 -26 -4z"/>
<path d="M3788 1653 c12 -2 30 -2 40 0 9 3 -1 5 -23 4 -22 0 -30 -2 -17 -4z"/>
<path d="M5851 1621 c-6 -10 -7 -21 -4 -25 3 -3 -1 -6 -10 -6 -9 0 -17 -4 -17
-10 0 -5 10 -10 23 -10 18 0 19 -2 7 -10 -10 -6 -11 -10 -2 -10 6 0 22 10 33
21 15 15 24 18 28 10 8 -13 41 -4 41 10 0 12 -37 49 -49 49 -5 0 -12 -8 -14
-17 -4 -17 -5 -17 -6 0 -1 22 -18 22 -30 -2z"/>
<path d="M3103 1613 c9 -2 23 -2 30 0 6 3 -1 5 -18 5 -16 0 -22 -2 -12 -5z"/>
<path d="M5135 1609 c-16 -6 -14 -8 13 -8 33 -1 41 4 20 12 -7 2 -22 1 -33 -4z"/>
<path d="M5195 1610 c-3 -5 -1 -10 4 -10 6 0 11 5 11 10 0 6 -2 10 -4 10 -3 0
-8 -4 -11 -10z"/>
<path d="M5224 1609 c-3 -5 6 -9 20 -9 31 0 34 6 6 13 -11 3 -23 1 -26 -4z"/>
<path d="M5681 1606 c-15 -18 1 -22 79 -25 l55 -1 -40 20 c-48 23 -78 25 -94
6z"/>
<path d="M2384 1596 c-9 -24 11 -43 29 -27 8 6 50 12 96 13 44 0 81 5 81 9 0
5 -15 9 -32 9 -18 0 -63 3 -100 6 -58 6 -68 4 -74 -10z"/>
<path d="M2723 1602 c-75 -3 -84 -9 -58 -36 13 -13 13 -15 -3 -19 -12 -3 -7
-9 21 -21 20 -9 37 -21 37 -26 0 -32 -122 -40 -245 -16 -58 11 -81 11 -145 0
-41 -7 -103 -13 -137 -14 -60 0 -63 -1 -63 -25 l0 -25 787 0 c453 0 783 4 778
9 -6 5 -82 12 -170 16 -88 4 -185 8 -215 9 -30 2 -66 4 -80 5 -25 3 -25 3 5
16 l30 14 -28 1 c-16 0 -38 -5 -50 -12 -12 -6 -42 -12 -67 -13 -47 -2 -105 14
-82 22 23 9 12 23 -17 23 -17 0 -33 5 -37 11 -4 8 3 9 25 4 21 -4 31 -3 31 5
0 7 8 9 21 5 12 -4 24 -2 29 4 3 7 14 9 23 5 9 -3 14 -10 11 -15 -2 -5 22 -8
54 -8 33 1 69 -2 80 -5 11 -4 23 -2 27 4 3 5 30 10 58 11 29 0 111 6 183 13
80 7 154 9 190 4 152 -20 333 -35 474 -38 70 -1 80 -3 57 -12 -15 -5 -25 -14
-22 -18 15 -24 -45 -31 -265 -30 -199 0 -230 -2 -230 -15 0 -13 61 -15 523
-13 287 1 485 4 440 5 -46 2 -83 8 -83 13 0 6 10 10 23 10 12 0 28 4 36 9 19
12 -43 20 -64 8 -11 -6 -21 -5 -28 2 -6 6 -28 11 -49 11 -21 0 -38 5 -38 11 0
7 -12 8 -32 4 -26 -6 -31 -5 -21 5 8 9 39 13 89 12 50 0 84 4 97 13 27 19 12
23 -86 24 -49 0 -91 3 -95 5 -42 26 -865 43 -907 19 -25 -14 -135 -20 -136 -7
-1 24 -55 27 -524 37 -44 1 -113 1 -152 -1z m72 -42 c-8 -13 -72 -24 -92 -15
-16 7 -15 9 7 15 37 12 92 12 85 0z"/>
<path d="M4682 1529 c18 -7 33 -7 45 0 14 8 9 10 -27 10 -42 -1 -43 -1 -18
-10z"/>
<path d="M4958 1529 c-5 -4 -8 -15 -6 -25 4 -25 48 -31 64 -9 9 13 17 14 31 6
12 -6 25 -6 33 -1 8 5 25 7 37 4 28 -7 44 2 36 22 -4 11 -23 14 -95 12 -49 -2
-94 -6 -100 -9z"/>
<path d="M5756 1523 c-35 -4 -96 -33 -71 -33 6 0 -1 -9 -14 -19 l-24 -18 33
-17 c43 -21 270 -24 270 -3 0 13 -72 37 -113 37 -14 0 -18 3 -10 8 17 11 4 52
-16 50 -9 -1 -34 -3 -55 -5z m5 -38 c0 -5 -9 -11 -21 -13 -20 -3 -27 8 -13 22
10 9 34 3 34 -9z"/>
<path d="M5860 1500 c0 -5 5 -10 10 -10 6 0 10 5 10 10 0 6 -4 10 -10 10 -5 0
-10 -4 -10 -10z"/>
<path d="M3455 1490 c-3 -6 1 -13 10 -16 19 -8 30 0 20 15 -8 14 -22 14 -30 1z"/>
<path d="M3365 1480 c28 -12 65 -12 65 0 0 6 -19 10 -42 9 -33 0 -38 -2 -23
-9z"/>
<path d="M5025 1440 l-50 -19 48 -1 c26 0 47 5 47 10 0 6 7 10 16 10 8 0 12 5
9 10 -8 13 -9 12 -70 -10z"/>
</g>
</svg>
