<svg xmlns="http://www.w3.org/2000/svg" x="0" y="0" width="414.05" height="140" viewBox="0 0 414.05 140"><defs><style>.cls-1{fill:#1d1013;}.cls-2{fill:#dc1e3d;}.cls-3{fill:#1c0c10;}</style></defs><g id="Layer_2" data-name="Layer 2"><path class="cls-1" d="M24.1,119.09h50V140H0V119.09L50,21.56H5.11V.65h69V21.56Z"/><path class="cls-1" d="M104.34.65V65.73H83.43V.65Z"/><path class="cls-1" d="M183.61,140V21.56H168.92V140H148V21.56H134.44V140H113.53V.65h91V140Z"/><ellipse class="cls-2" cx="225.71" cy="98.94" rx="13.9" ry="22.85"/><ellipse class="cls-2" cx="225.71" cy="41.71" rx="13.9" ry="22.85"/><path class="cls-1" d="M267.8,59.06h33.85V80H267.8v59.38H246.89V0h69V20.91H267.8Z"/><path class="cls-3" d="M414.05,139.35h-91V0H344V118.44h14.69V0h20.91V118.44h13.57V0h20.91Z"/><path class="cls-1" d="M104.34,74.92V140H83.43V74.92Z"/></g></svg>