<svg xmlns="http://www.w3.org/2000/svg" viewBox="0 0 180.02 131.32"><defs><style>.cls-1{fill:#1d1013;}.cls-2{fill:#dc1e3d;}</style></defs><g id="Layer_2" data-name="Layer 2"><path class="cls-1" d="M18.11,89H55.65V104.7H0V89L37.54,15.71H0V0H55.65V15.71Z"/><path class="cls-1" d="M78.39,0V48.9H62.68V0Z"/><path class="cls-1" d="M138,104.7v-89h-11v89H111.2v-89H101v89H85.3V0h68.36V104.7Z"/><ellipse class="cls-2" cx="169.58" cy="73.85" rx="10.44" ry="17.17"/><ellipse class="cls-2" cx="169.58" cy="30.85" rx="10.44" ry="17.17"/><path class="cls-1" d="M78.39,55.8v48.9H62.68V55.8Z"/><path class="cls-1" d="M4.53,120h6.7v3.24H4.53v7.58H0v-19.1H12.55L12.08,115H4.53Z"/><path class="cls-1" d="M25.48,122.8l5,8.06H25.37l-4.13-7.31H20v7.31H15.44v-19.1h6c5.19,0,7.86,1.85,7.86,5.8A5.46,5.46,0,0,1,25.48,122.8Zm-4-7.87H20v5.52h1.68c2,0,3-.86,3-2.89C24.66,115.73,23.57,114.93,21.46,114.93Z"/><path class="cls-1" d="M37.74,126.74l-1,4.12H32l5.84-19.1h5.49l5.84,19.1H44.34l-1-4.12Zm4.85-3.28L40.53,115l-2.07,8.45Z"/><path class="cls-1" d="M66.53,130.86H62.59l-.23-8.17a58.6,58.6,0,0,1,.23-7.09l-2.15,12H57l-2.32-12a57.94,57.94,0,0,1,.27,7.15l-.14,8.11H51L52,111.76h4.64L58.8,124.1l2-12.34h4.64Z"/><path class="cls-1" d="M74.71,119.57h6.61v3.17H74.71v4.88h8v3.24H70.19v-19.1H82.67L82.22,115H74.71Z"/><path class="cls-1" d="M99.5,130.86H94.8L93.41,117.2l-1.53,13.66H87.1L85,111.76h4.23L89.91,127l1.58-13h3.89l1.47,13,1-15.24h3.93Z"/><path class="cls-1" d="M111,131.32c-5,0-7.65-3.83-7.65-10,0-6,2.65-10,7.65-10s7.65,3.83,7.65,10S116,131.32,111,131.32Zm0-16.75c-2.15,0-3,2-3,6.72s.9,6.73,3,6.73,3-2.08,3-6.73S113.19,114.57,111,114.57Z"/><path class="cls-1" d="M131.85,122.8l5,8.06h-5.11l-4.13-7.31h-1.29v7.31h-4.51v-19.1h6c5.2,0,7.87,1.85,7.87,5.8A5.47,5.47,0,0,1,131.85,122.8Zm-4-7.87h-1.51v5.52H128c2,0,3-.86,3-2.89C131,115.73,129.93,114.93,127.83,114.93Z"/><path class="cls-1" d="M139.25,130.86v-19.1h4.52v19.1Zm9.87-19.1h4.74l-5.4,8.57,5.93,10.53h-5.24l-5.25-10.2Z"/></g></svg>